<svg version="1.1" xmlns="http://www.w3.org/2000/svg" viewBox="0 0 629.4927536231885 611.6295427901525" width="629.4927536231885" height="611.6295427901525" filter="invert(93%) hue-rotate(180deg)">
  <!-- svg-source:excalidraw -->
  
  <defs>
    <style class="style-fonts">
      @font-face {
        font-family: "Virgil";
        src: url("https://excalidraw.com/Virgil.woff2");
      }
      @font-face {
        font-family: "Cascadia";
        src: url("https://excalidraw.com/Cascadia.woff2");
      }
      @font-face {
        font-family: "Assistant";
        src: url("https://excalidraw.com/Assistant-Regular.woff2");
      }
    </style>
    
  </defs>
  <g stroke-linecap="round" transform="translate(10 10) rotate(0 302.6027915116299 224.71919227959302)"><path d="M32 0 C196.31 -0.83, 358.75 -0.82, 573.21 0 M32 0 C160.83 -1.09, 289.03 -0.51, 573.21 0 M573.21 0 C596.01 -0.07, 604.59 10.46, 605.21 32 M573.21 0 C595.69 0.19, 606.59 9.71, 605.21 32 M605.21 32 C605.19 174.43, 604.32 316.17, 605.21 417.44 M605.21 32 C604.97 158.3, 605.11 285.08, 605.21 417.44 M605.21 417.44 C604.61 437.97, 596.27 449.52, 573.21 449.44 M605.21 417.44 C606.79 436.58, 594.05 450.43, 573.21 449.44 M573.21 449.44 C373.39 449.51, 173.14 449.43, 32 449.44 M573.21 449.44 C358.98 448.75, 144.21 448.16, 32 449.44 M32 449.44 C12.3 448.43, 1.35 439.17, 0 417.44 M32 449.44 C12.16 447.41, 0.17 439.32, 0 417.44 M0 417.44 C-2.12 267.04, -0.62 116.47, 0 32 M0 417.44 C-1.68 284.36, -2.16 151.13, 0 32 M0 32 C0.86 9.34, 11.55 -0.48, 32 0 M0 32 C-0.35 8.8, 11.28 -1.79, 32 0" stroke="#1e1e1e" stroke-width="2" fill="none"></path></g><g stroke-linecap="round" transform="translate(42.15377949946469 72.16397369896504) rotate(0 103.24935861494805 117.89719149803761)"><path d="M32 0 C84.88 1.2, 135.14 2.27, 174.5 0 M32 0 C74.78 -1.85, 118.67 -0.84, 174.5 0 M174.5 0 C194.53 -1.59, 208.05 12.59, 206.5 32 M174.5 0 C196.57 -0.44, 206.27 11.18, 206.5 32 M206.5 32 C206.04 94.63, 205.62 156.09, 206.5 203.79 M206.5 32 C204.95 77.62, 205.16 122.61, 206.5 203.79 M206.5 203.79 C206.44 223.32, 197.82 234.8, 174.5 235.79 M206.5 203.79 C204.36 223.37, 193.76 236.65, 174.5 235.79 M174.5 235.79 C137.2 236.09, 102.14 235.46, 32 235.79 M174.5 235.79 C143.45 235.52, 111.88 237.02, 32 235.79 M32 235.79 C10.73 236.83, 1.91 224.7, 0 203.79 M32 235.79 C10.52 235.97, 0.73 226.54, 0 203.79 M0 203.79 C-2.75 165.63, -2.04 127.03, 0 32 M0 203.79 C0.04 135.12, 0.82 65.82, 0 32 M0 32 C0.83 9.62, 9.61 -0.54, 32 0 M0 32 C-1.16 9.12, 9.97 0.52, 32 0" stroke="#2f9e44" stroke-width="2" fill="none"></path></g><g stroke-linecap="round" transform="translate(61.44604719914378 87.16907079871567) rotate(0 81.0989771819834 26.080287816232612)"><path d="M13.04 0 C42.54 -0.28, 68.59 4.9, 149.16 0 C158.02 -0.48, 159.39 5.57, 162.2 13.04 C163.06 23.68, 159.09 31.79, 162.2 39.12 C163.08 47.37, 158.9 54.83, 149.16 52.16 C109.78 48.29, 72.67 49.27, 13.04 52.16 C4.05 50.94, -3.56 44.38, 0 39.12 C-0.95 32.82, 3.46 26, 0 13.04 C-2.96 1.96, 5.59 -3.2, 13.04 0" stroke="none" stroke-width="0" fill="#ffec99"></path><path d="M13.04 0 C44.49 1.14, 75.74 -1.76, 149.16 0 M13.04 0 C67.84 1.17, 121.19 -0.21, 149.16 0 M149.16 0 C159.41 1.92, 162.84 3.97, 162.2 13.04 M149.16 0 C157.62 0.51, 163.69 2.55, 162.2 13.04 M162.2 13.04 C162.78 19.21, 161.64 26.84, 162.2 39.12 M162.2 13.04 C161.74 21.64, 162.03 31.05, 162.2 39.12 M162.2 39.12 C164.19 46.82, 155.99 50.63, 149.16 52.16 M162.2 39.12 C160.13 48.67, 156.78 52.67, 149.16 52.16 M149.16 52.16 C117.98 53.75, 85.52 53.62, 13.04 52.16 M149.16 52.16 C106.08 52.27, 61.55 51.88, 13.04 52.16 M13.04 52.16 C6.25 51.74, -0.13 47.97, 0 39.12 M13.04 52.16 C5.08 53.58, -1.64 49.13, 0 39.12 M0 39.12 C-0.82 30.96, 2.21 18.75, 0 13.04 M0 39.12 C0.46 32.54, 0.53 27.09, 0 13.04 M0 13.04 C-1.06 3.81, 3.34 -1.35, 13.04 0 M0 13.04 C-0.7 4.87, 3.03 -2.26, 13.04 0" stroke="#f08c00" stroke-width="2" fill="none"></path></g><g stroke-linecap="round" transform="translate(61.44604719914378 160.05097099750242) rotate(0 81.0989771819834 26.080287816232612)"><path d="M13.04 0 C42.06 4.57, 76.91 0.82, 149.16 0 C155.05 1.23, 163.54 0.92, 162.2 13.04 C159.71 22.53, 163.25 29.27, 162.2 39.12 C163.25 50.49, 157.07 51.63, 149.16 52.16 C115.09 48.91, 82.23 49.22, 13.04 52.16 C0.79 48.73, -0.68 48.72, 0 39.12 C3.69 30.74, -2.85 16.88, 0 13.04 C1.24 1.15, 5.22 -0.29, 13.04 0" stroke="none" stroke-width="0" fill="#b2f2bb"></path><path d="M13.04 0 C55.3 -2.48, 99.44 -1.58, 149.16 0 M13.04 0 C47.34 -1.59, 83.71 0.16, 149.16 0 M149.16 0 C158.49 -0.38, 162 4.79, 162.2 13.04 M149.16 0 C159.35 -1.8, 161.91 5.37, 162.2 13.04 M162.2 13.04 C161.58 19.58, 163.51 27.42, 162.2 39.12 M162.2 13.04 C162.08 19.67, 163.11 27.61, 162.2 39.12 M162.2 39.12 C160.33 46.29, 156.05 52.9, 149.16 52.16 M162.2 39.12 C161.13 48.32, 156.2 50.8, 149.16 52.16 M149.16 52.16 C97.76 53.19, 49.91 53.9, 13.04 52.16 M149.16 52.16 C116.39 53.92, 84.52 53.19, 13.04 52.16 M13.04 52.16 C4.22 52.31, 0.64 49.05, 0 39.12 M13.04 52.16 C2.7 53.48, 1.84 45.79, 0 39.12 M0 39.12 C2.12 29.32, -1.45 19.74, 0 13.04 M0 39.12 C0.32 31.03, -0.62 23.72, 0 13.04 M0 13.04 C-1.01 3, 3.74 0.45, 13.04 0 M0 13.04 C-1.32 2.08, 2.38 2.21, 13.04 0" stroke="#2f9e44" stroke-width="2" fill="none"></path></g><g stroke-linecap="round" transform="translate(61.44604719914378 231.5038143296465) rotate(0 81.0989771819834 26.080287816232612)"><path d="M13.04 0 C46.87 -2.71, 77.56 -1, 149.16 0 C159.19 -3.43, 162.91 5.66, 162.2 13.04 C162.74 21.76, 162.9 34.03, 162.2 39.12 C161.41 47.29, 155.86 50.65, 149.16 52.16 C117.55 49.89, 82.97 47.68, 13.04 52.16 C3.67 53.07, 2.9 46.98, 0 39.12 C-3.43 28.16, 0.77 18.77, 0 13.04 C0.88 4.06, 1.76 0.17, 13.04 0" stroke="none" stroke-width="0" fill="#a5d8ff"></path><path d="M13.04 0 C64.53 0.39, 111.16 1.9, 149.16 0 M13.04 0 C62.62 2.04, 110.96 0.89, 149.16 0 M149.16 0 C157.65 0.44, 163.5 2.78, 162.2 13.04 M149.16 0 C157.56 1.02, 162.11 4.88, 162.2 13.04 M162.2 13.04 C163.36 18.08, 161.89 24.6, 162.2 39.12 M162.2 13.04 C163.18 18.14, 161.26 23.47, 162.2 39.12 M162.2 39.12 C160.4 48.56, 156.92 52.6, 149.16 52.16 M162.2 39.12 C160.54 46.45, 159.37 52, 149.16 52.16 M149.16 52.16 C104.07 53.82, 56.92 54.03, 13.04 52.16 M149.16 52.16 C96.9 52.66, 42.68 52.94, 13.04 52.16 M13.04 52.16 C4.99 53.39, -1.43 48.96, 0 39.12 M13.04 52.16 C6.19 50.13, 1.26 46.6, 0 39.12 M0 39.12 C-1.85 28.14, -0.46 19.59, 0 13.04 M0 39.12 C-0.64 33.19, -0.61 27.13, 0 13.04 M0 13.04 C-0.61 4.8, 3.2 -1.97, 13.04 0 M0 13.04 C-1.97 6.56, 2.83 0.2, 13.04 0" stroke="#1971c2" stroke-width="2" fill="none"></path></g><g stroke-linecap="round" transform="translate(376.55308629389856 72.16397369896504) rotate(0 103.24935861494805 117.89719149803761)"><path d="M32 0 C73.3 1.11, 116.6 0.11, 174.5 0 M32 0 C82.26 -0.22, 133.9 -0.6, 174.5 0 M174.5 0 C197.45 0.34, 208.3 11.11, 206.5 32 M174.5 0 C194.65 -1.03, 208.02 12.06, 206.5 32 M206.5 32 C206.19 81.3, 203.94 133.19, 206.5 203.79 M206.5 32 C205.68 86.1, 206.2 140.35, 206.5 203.79 M206.5 203.79 C204.79 223.94, 195.58 237.39, 174.5 235.79 M206.5 203.79 C207.26 225.4, 195.09 236.58, 174.5 235.79 M174.5 235.79 C120.16 234.62, 65.72 236.42, 32 235.79 M174.5 235.79 C141.93 235.34, 109.99 234.25, 32 235.79 M32 235.79 C10.04 237.69, 0.39 225.04, 0 203.79 M32 235.79 C11.7 234.17, 0.21 225.24, 0 203.79 M0 203.79 C-0.22 138.36, -1.66 73.83, 0 32 M0 203.79 C0.35 147.38, 0.64 89.64, 0 32 M0 32 C1.01 11.81, 9.58 1.6, 32 0 M0 32 C1.7 12.31, 10.51 -2.13, 32 0" stroke="#2f9e44" stroke-width="2" fill="none"></path></g><g stroke-linecap="round" transform="translate(395.84535399357765 87.16907079871567) rotate(0 81.0989771819834 26.080287816232612)"><path d="M13.04 0 C63.68 0.47, 117.92 -0.23, 149.16 0 C154.9 2.54, 161.61 7.75, 162.2 13.04 C165.58 21.43, 159.59 29.23, 162.2 39.12 C161.72 46.94, 160.75 50.49, 149.16 52.16 C103.45 48.79, 57.17 50.92, 13.04 52.16 C2.82 55.54, -2.33 50.02, 0 39.12 C-3.04 28.77, 2.74 17.83, 0 13.04 C2.05 6.29, 7.54 -2.37, 13.04 0" stroke="none" stroke-width="0" fill="#ffec99"></path><path d="M13.04 0 C61.31 -0.52, 107.78 -0.29, 149.16 0 M13.04 0 C53.9 -1.05, 92.24 -1.27, 149.16 0 M149.16 0 C158.2 0.17, 161.49 5.39, 162.2 13.04 M149.16 0 C159.35 1.74, 162.21 5.12, 162.2 13.04 M162.2 13.04 C161.93 18.16, 164.27 25.2, 162.2 39.12 M162.2 13.04 C161.45 21.56, 161.74 29.87, 162.2 39.12 M162.2 39.12 C161.6 49.43, 156.04 52.63, 149.16 52.16 M162.2 39.12 C163.74 49.29, 156.51 54.43, 149.16 52.16 M149.16 52.16 C117.96 54.37, 83.29 52.87, 13.04 52.16 M149.16 52.16 C104.65 53.09, 61.02 53.33, 13.04 52.16 M13.04 52.16 C5.15 51.7, 0.34 48.75, 0 39.12 M13.04 52.16 C4.14 53.8, 0.52 48.84, 0 39.12 M0 39.12 C-2.17 32.31, 1.53 28.46, 0 13.04 M0 39.12 C-0.79 29.81, 0.77 22.69, 0 13.04 M0 13.04 C-1.45 4.83, 3.35 -0.59, 13.04 0 M0 13.04 C1.03 4.03, 3.8 -1.87, 13.04 0" stroke="#f08c00" stroke-width="2" fill="none"></path></g><g stroke-linecap="round" transform="translate(395.84535399357765 159.33644256418097) rotate(0 81.0989771819834 26.080287816232612)"><path d="M13.04 0 C57.23 -1.69, 97.66 -2.22, 149.16 0 C157.71 -3.51, 165.51 3.82, 162.2 13.04 C163.39 22.99, 161.14 27.93, 162.2 39.12 C162.12 44.45, 156.54 50.81, 149.16 52.16 C111.89 50.28, 71.1 56.08, 13.04 52.16 C7.09 53.43, -2.75 48.18, 0 39.12 C2.62 35.47, -2.35 28.45, 0 13.04 C-1.88 7.35, 0.8 -2.29, 13.04 0" stroke="none" stroke-width="0" fill="#b2f2bb"></path><path d="M13.04 0 C61.27 -0.04, 108.74 1.47, 149.16 0 M13.04 0 C50.19 0.52, 86.71 1.67, 149.16 0 M149.16 0 C159.01 1.88, 163.62 3, 162.2 13.04 M149.16 0 C156.63 1.84, 162.79 2.22, 162.2 13.04 M162.2 13.04 C163.01 20.92, 160.78 30.08, 162.2 39.12 M162.2 13.04 C162.94 22.82, 161.4 30.53, 162.2 39.12 M162.2 39.12 C162.78 46.17, 156.9 50.59, 149.16 52.16 M162.2 39.12 C160.31 49.05, 158.05 50.68, 149.16 52.16 M149.16 52.16 C110.22 51.55, 75.58 53.4, 13.04 52.16 M149.16 52.16 C101.53 51.59, 51.53 51.57, 13.04 52.16 M13.04 52.16 C3.9 53.29, -1.48 49.76, 0 39.12 M13.04 52.16 C5.17 50.89, 2.04 48.1, 0 39.12 M0 39.12 C-1.28 31.47, -0.81 25.1, 0 13.04 M0 39.12 C0.39 32.67, 0.86 27.61, 0 13.04 M0 13.04 C-0.14 4.58, 4.42 -1.88, 13.04 0 M0 13.04 C-1.09 2.6, 6.08 0.37, 13.04 0" stroke="#2f9e44" stroke-width="2" fill="none"></path></g><g stroke-linecap="round" transform="translate(395.84535399357765 231.5038143296465) rotate(0 81.0989771819834 26.080287816232612)"><path d="M13.04 0 C51.28 -5.46, 89.73 -5.4, 149.16 0 C160.78 -2.11, 162.23 3.62, 162.2 13.04 C165.43 24.21, 161.66 31.62, 162.2 39.12 C160.56 50.59, 160.07 50.25, 149.16 52.16 C114.77 51.69, 76.75 48.07, 13.04 52.16 C4.25 49.72, -0.27 46.34, 0 39.12 C-2.09 28.79, -2.97 24.11, 0 13.04 C-0.92 1.92, 6.58 -2.92, 13.04 0" stroke="none" stroke-width="0" fill="#a5d8ff"></path><path d="M13.04 0 C40 1.35, 69.76 2.88, 149.16 0 M13.04 0 C65.36 0.78, 115.76 0.76, 149.16 0 M149.16 0 C157.8 -1.12, 163.35 5.87, 162.2 13.04 M149.16 0 C157.53 1.49, 160.39 3.21, 162.2 13.04 M162.2 13.04 C162.79 18.07, 163.3 23.97, 162.2 39.12 M162.2 13.04 C161.47 20.77, 161.42 29.21, 162.2 39.12 M162.2 39.12 C162.73 47.06, 159.06 52.18, 149.16 52.16 M162.2 39.12 C162.97 48.91, 156.28 51.84, 149.16 52.16 M149.16 52.16 C119.8 53.75, 85.25 51.72, 13.04 52.16 M149.16 52.16 C113.69 52.41, 79.71 50.8, 13.04 52.16 M13.04 52.16 C5.17 53.19, 0.06 47.23, 0 39.12 M13.04 52.16 C6.23 53.06, 1.59 46.12, 0 39.12 M0 39.12 C0.42 32.15, 0.24 22.74, 0 13.04 M0 39.12 C-0.38 31.4, -0.79 23.13, 0 13.04 M0 13.04 C0.73 5.44, 5.49 0.35, 13.04 0 M0 13.04 C0.01 5.27, 4.73 -1.77, 13.04 0" stroke="#1971c2" stroke-width="2" fill="none"></path></g><g stroke-linecap="round" transform="translate(190.061165197003 350.8300626943269) rotate(0 129.32964643118066 37.870006966036385)"><path d="M18.94 0 C74.62 -3.38, 134.17 -2.09, 239.72 0 C253.57 2.92, 260.99 9.35, 258.66 18.94 C262.08 33.38, 261.36 48.58, 258.66 56.81 C261.47 70.86, 252.81 77.67, 239.72 75.74 C162.43 73.21, 84.01 72.99, 18.94 75.74 C3.27 77.61, 3.41 71.28, 0 56.81 C-1.2 42.97, -2.26 29.1, 0 18.94 C-2.53 8.04, 7.53 -3, 18.94 0" stroke="none" stroke-width="0" fill="#ffc9c9"></path><path d="M18.94 0 C73.31 -1.32, 127.8 -1.47, 239.72 0 M18.94 0 C105.97 -1.59, 195.12 -0.14, 239.72 0 M239.72 0 C252.48 -1.3, 258.03 7.54, 258.66 18.94 M239.72 0 C253.43 -2.01, 257.43 5.56, 258.66 18.94 M258.66 18.94 C258.89 26.46, 258.85 32.59, 258.66 56.81 M258.66 18.94 C258.55 31.46, 259.27 43.04, 258.66 56.81 M258.66 56.81 C260.3 67.99, 252.11 75.08, 239.72 75.74 M258.66 56.81 C259.23 69.77, 250.8 75.11, 239.72 75.74 M239.72 75.74 C169.22 75.6, 99.71 77.69, 18.94 75.74 M239.72 75.74 C178.01 74.9, 114.83 74.65, 18.94 75.74 M18.94 75.74 C7.45 76.5, 0.55 67.71, 0 56.81 M18.94 75.74 C7.77 73.8, 1.96 67.67, 0 56.81 M0 56.81 C-0.24 44.91, -1.32 31.57, 0 18.94 M0 56.81 C-0.9 42.14, -0.17 28.63, 0 18.94 M0 18.94 C0 6.62, 6.04 0.13, 18.94 0 M0 18.94 C1.72 6.12, 4.23 -0.32, 18.94 0" stroke="#e03131" stroke-width="2" fill="none"></path></g><g transform="translate(71.44944526564359 103.60322476510873) rotate(0 70.4238497752558 8.931605416517982)"><text x="0" y="0" font-family="Virgil, Segoe UI Emoji" font-size="14.290568666428806px" fill="#1e1e1e" text-anchor="start" style="white-space: pre;" direction="ltr" dominant-baseline="text-before-edge">Control API (REST)</text></g><g transform="translate(77.16567273221563 247.22343986271812) rotate(0 63.55008973561189 8.931605416517982)"><text x="0" y="0" font-family="Virgil, Segoe UI Emoji" font-size="14.290568666428806px" fill="#1e1e1e" text-anchor="start" style="white-space: pre;" direction="ltr" dominant-baseline="text-before-edge">Runtime Controller</text></g><g transform="translate(425.855548193078 97.88699729853715) rotate(0 49.752563786887094 17.863210833035964)"><text x="49.75256378688703" y="0" font-family="Virgil, Segoe UI Emoji" font-size="14.290568666428806px" fill="#1e1e1e" text-anchor="middle" style="white-space: pre;" direction="ltr" dominant-baseline="text-before-edge">Kafka Client</text><text x="49.75256378688703" y="17.863210833036007" font-family="Virgil, Segoe UI Emoji" font-size="14.290568666428806px" fill="#1e1e1e" text-anchor="middle" style="white-space: pre;" direction="ltr" dominant-baseline="text-before-edge">(IBM Sarama)</text></g><g transform="translate(415.13762169325673 169.339840630681) rotate(0 60.33471178566538 17.863210833035964)"><text x="60.33471178566542" y="0" font-family="Virgil, Segoe UI Emoji" font-size="14.290568666428806px" fill="#1e1e1e" text-anchor="middle" style="white-space: pre;" direction="ltr" dominant-baseline="text-before-edge">Metrics Storage </text><text x="60.33471178566542" y="17.863210833036007" font-family="Virgil, Segoe UI Emoji" font-size="14.290568666428806px" fill="#1e1e1e" text-anchor="middle" style="white-space: pre;" direction="ltr" dominant-baseline="text-before-edge">(Badger DB)</text></g><g transform="translate(429.4281903596857 250.0815535960039) rotate(0 43.05029449626227 8.931605416517982)"><text x="0" y="0" font-family="Virgil, Segoe UI Emoji" font-size="14.290568666428806px" fill="#1e1e1e" text-anchor="start" style="white-space: pre;" direction="ltr" dominant-baseline="text-before-edge">HTTP Client</text></g><g transform="translate(282.9728715024821 372.2659156939703) rotate(0 39.20190863752964 16.791418183053793)"><text x="39.20190863752956" y="0" font-family="Virgil, Segoe UI Emoji" font-size="26.866269092886146px" fill="#1e1e1e" text-anchor="middle" style="white-space: pre;" direction="ltr" dominant-baseline="text-before-edge">Kafka</text></g><g transform="translate(86.45454236539445 168.62531219735956) rotate(0 60.33471178566538 17.863210833035964)"><text x="60.33471178566542" y="0" font-family="Virgil, Segoe UI Emoji" font-size="14.290568666428806px" fill="#1e1e1e" text-anchor="middle" style="white-space: pre;" direction="ltr" dominant-baseline="text-before-edge">Metrics Storage </text><text x="60.33471178566542" y="17.863210833036007" font-family="Virgil, Segoe UI Emoji" font-size="14.290568666428806px" fill="#1e1e1e" text-anchor="middle" style="white-space: pre;" direction="ltr" dominant-baseline="text-before-edge">(Badger DB)</text></g><g transform="translate(98.29136177813643 25.71962553307162) rotate(0 211.09605178354695 16.07688974973246)"><text x="211.09605178354693" y="0" font-family="Virgil, Segoe UI Emoji" font-size="25.72302359957185px" fill="#1e1e1e" text-anchor="middle" style="white-space: pre;" direction="ltr" dominant-baseline="text-before-edge">Distributed Load Testing System</text></g><g stroke-linecap="round"><g transform="translate(123.61002089810927 323.67798222811234) rotate(0 27.152080466214784 33.5828363661077)"><path d="M0.83 -0.21 C1.98 10.47, -2.79 52.54, 6.01 63.77 C14.82 74.99, 45.71 66.43, 53.66 67.13 M-0.19 -1.37 C0.91 9.55, -3.57 53.76, 5.22 65.39 C14.01 77.03, 44.48 68.36, 52.56 68.43" stroke="#1e1e1e" stroke-width="2" fill="none"></path></g><g transform="translate(123.61002089810927 323.67798222811234) rotate(0 27.152080466214784 33.5828363661077)"><path d="M30.87 79.53 C35.41 77.38, 40.91 73.33, 52.56 68.43 M30.87 79.53 C36.64 76.7, 43.15 72.99, 52.56 68.43" stroke="#1e1e1e" stroke-width="2" fill="none"></path></g><g transform="translate(123.61002089810927 323.67798222811234) rotate(0 27.152080466214784 33.5828363661077)"><path d="M28.81 62.99 C33.76 64.54, 39.73 64.19, 52.56 68.43 M28.81 62.99 C35.11 65.06, 42.23 66.26, 52.56 68.43" stroke="#1e1e1e" stroke-width="2" fill="none"></path></g></g><mask></mask><g stroke-linecap="round"><g transform="translate(504.70773145973453 317.96175476154053) rotate(0 -22.277409233613753 36.14331708089378)"><path d="M-0.66 0.24 C-1 11.22, 5.15 54.03, -2.05 66.02 C-9.25 78.01, -36.61 70.95, -43.86 72.18 M1.19 -0.67 C1.21 10.51, 7.62 55.3, 0.05 67.65 C-7.53 80.01, -36.62 72.82, -44.26 73.45" stroke="#1e1e1e" stroke-width="2" fill="none"></path></g><g transform="translate(504.70773145973453 317.96175476154053) rotate(0 -22.277409233613753 36.14331708089378)"><path d="M-23.04 67.37 C-28.96 67.11, -35.39 72.04, -44.26 73.45 M-23.04 67.37 C-30.09 68.4, -35.3 70.81, -44.26 73.45" stroke="#1e1e1e" stroke-width="2" fill="none"></path></g><g transform="translate(504.70773145973453 317.96175476154053) rotate(0 -22.277409233613753 36.14331708089378)"><path d="M-24.09 82.43 C-29.73 77.68, -35.84 78.11, -44.26 73.45 M-24.09 82.43 C-30.72 79.07, -35.62 77.09, -44.26 73.45" stroke="#1e1e1e" stroke-width="2" fill="none"></path></g></g><mask></mask><g transform="translate(23.36886994462793 342.97024992779143) rotate(0 43.0788762877653 26.79481624955406)"><text x="43.07887628776538" y="0" font-family="Virgil, Segoe UI Emoji" font-size="14.290568666428806px" fill="#1e1e1e" text-anchor="middle" style="white-space: pre;" direction="ltr" dominant-baseline="text-before-edge">Control Info</text><text x="43.07887628776538" y="17.863210833036007" font-family="Virgil, Segoe UI Emoji" font-size="14.290568666428806px" fill="#1e1e1e" text-anchor="middle" style="white-space: pre;" direction="ltr" dominant-baseline="text-before-edge">+</text><text x="43.07887628776538" y="35.726421666072014" font-family="Virgil, Segoe UI Emoji" font-size="14.290568666428806px" fill="#1e1e1e" text-anchor="middle" style="white-space: pre;" direction="ltr" dominant-baseline="text-before-edge">Triggers</text></g><g transform="translate(526.2682716668678 340.82666462782686) rotate(0 36.062207290605556 26.79481624955406)"><text x="36.062207290605606" y="0" font-family="Virgil, Segoe UI Emoji" font-size="14.290568666428806px" fill="#1e1e1e" text-anchor="middle" style="white-space: pre;" direction="ltr" dominant-baseline="text-before-edge">Metrics</text><text x="36.062207290605606" y="17.863210833036007" font-family="Virgil, Segoe UI Emoji" font-size="14.290568666428806px" fill="#1e1e1e" text-anchor="middle" style="white-space: pre;" direction="ltr" dominant-baseline="text-before-edge">+</text><text x="36.062207290605606" y="35.726421666072014" font-family="Virgil, Segoe UI Emoji" font-size="14.290568666428806px" fill="#1e1e1e" text-anchor="middle" style="white-space: pre;" direction="ltr" dominant-baseline="text-before-edge">Heartbeat</text></g><g stroke-linecap="round" transform="translate(11.429056866642895 488.73405032536493) rotate(0 304.0318483782728 56.4477462323938)"><path d="M28.22 0 C173.44 0.62, 317.69 0.09, 579.84 0 M28.22 0 C229.39 -0.83, 429.72 -1.02, 579.84 0 M579.84 0 C598.33 -0.32, 608.58 7.76, 608.06 28.22 M579.84 0 C596.8 1.99, 607.48 7.53, 608.06 28.22 M608.06 28.22 C607.95 46.9, 607.5 66.44, 608.06 84.67 M608.06 28.22 C606.85 40.75, 608.4 52.45, 608.06 84.67 M608.06 84.67 C606.7 102.02, 596.76 114.4, 579.84 112.9 M608.06 84.67 C606.45 105.25, 599.01 111.02, 579.84 112.9 M579.84 112.9 C455.26 114.35, 332.79 115.14, 28.22 112.9 M579.84 112.9 C443.48 113.05, 306.31 112.48, 28.22 112.9 M28.22 112.9 C8.55 111.51, 1.21 104.44, 0 84.67 M28.22 112.9 C9.92 112.42, 2.2 104.19, 0 84.67 M0 84.67 C1.1 73.18, 1.17 59.71, 0 28.22 M0 84.67 C1.13 67.04, -0.5 47.27, 0 28.22 M0 28.22 C0.04 10.22, 9.97 1.37, 28.22 0 M0 28.22 C-2.07 7.97, 11.4 0.57, 28.22 0" stroke="#1e1e1e" stroke-width="2" fill="none"></path></g><g transform="translate(195.15815503999465 528.7476425913655) rotate(0 104.2258604551887 12.50424758312522)"><text x="104.22586045518862" y="0" font-family="Virgil, Segoe UI Emoji" font-size="20.00679613300033px" fill="#1e1e1e" text-anchor="middle" style="white-space: pre;" direction="ltr" dominant-baseline="text-before-edge">Target HTTP Server</text></g></svg>